# xmcd
#
# Track frame offsets:
#	150
#	14406
#	29983
#	43551
#	60627
#	70846
#	76916
#	85282
#	105402
#	120746
#	132610
#	152928
#	165464
#	185717
#	205220
#	226965
#	245866
#	261227
#	280179
#	295874
#	306381
#	320724
#	329747
#
# Disc length: 4651 seconds
#
# Revision: 1
# Processed by: cddbd v1.5.2PL0 Copyright (c) Steve Scherf et al.
# Submitted via: audiograbber 1.83.01
#
DISCID=64122917
DTITLE=Various Artist - Rock 'n' Roll is in my soul (Bonus CD)
DYEAR=2008
DGENRE=Rock
TTITLE0=Yeti Girls - Sexyminisuperflowerpopcolafan
TTITLE1=Germ Attack - TV
TTITLE2=Scorefor - Break my stride
TTITLE3=The Cheeks - Every single day
TTITLE4=Sloppy Seconds - Mighty Heroes
TTITLE5=Axel Sweat - Why are you?
TTITLE6=Psychotic Youth - Headcase
TTITLE7=Square the circle - Send them all to hell
TTITLE8=Frau Doktor - Chef der Idioten
TTITLE9=Human Hamster Hybrids - Same old game
TTITLE10=Furillo - Vampire Hotel
TTITLE11=WWH - Rote Armani Fraktion
TTITLE12=Krombacher MC - Porno
TTITLE13=Move on - Check your laws
TTITLE14=Anarchist Academy - Es ist die Systematik
TTITLE15=Mentally Damaged - Everybody
TTITLE16=Negative Nein - Die Wurzel allen Übels
TTITLE17=The new morty show - Baby what's up
TTITLE18=Dem Brooklyn Bums - Boardwalk Boogie
TTITLE19=The Camaros - Girl singer
TTITLE20=The Senti-Mentals - Sisterheart
TTITLE21=The Hoagies and The Welt Swing Orchestra - Boogie Woogie Bugie Boy
TTITLE22=Hipster Daddy-O - Halfway to Elvis
EXTD=
EXTT0=
EXTT1=
EXTT2=
EXTT3=
EXTT4=
EXTT5=
EXTT6=
EXTT7=
EXTT8=
EXTT9=
EXTT10=
EXTT11=
EXTT12=
EXTT13=
EXTT14=
EXTT15=
EXTT16=
EXTT17=
EXTT18=
EXTT19=
EXTT20=
EXTT21=
EXTT22=
PLAYORDER=
